:SAMPLES-PER-SECOND 30
:FULLY-SPECIFIED
:DEGREES
304
root  -0.929473 19.5943 32.0537 56.3994 -0.0261901 5.1046
RightUpLeg  -55.068 -6.54183 6.4555
RightLeg  108.452 18.1723 -6.63724
RightFoot  -20.1544 0.0198515 -0.736504
RightToes  5.82077e-011 -3.18055e-015 -2.98177e-016
Spine  40.1069 -0.343197 -1.91365
Spine1  -12.422 -1.40051 -0.122033
HEad  -24.138 -8.76401 -1.98881
LeftShoulder1  -3.88251e-019 9.70628e-020 -3.87848e-018
LeftArm  -3.28357 -22.8779 -72.1292
LeftForeArm  18.4078 -7.72449 -7.55419
LeftHand  -12.0488 -11.1761 74.4888
RightShoulder  4.50642 9.40518 21.3296
RightArm  -2.44827 0.0399849 49.7362
RightForeArm  6.72638 39.3935 -22.7088
RightHand  -8.17095 9.52128 -57.8937
LeftUpLeg  -50.1287 -1.84825 -7.43199
LeftLeg  104.731 -18.9673 16.9313
LeftFoot  -8.93958 0.0147969 -1.19017
LeftToes  9.37148e-011 4.50685e-012 -4.11107e-011
305
root  -1.06322 19.6547 32.4701 54.2042 -1.51838 6.52937
RightUpLeg  -51.4751 -7.12861 3.95735
RightLeg  107.62 18.0401 -6.54478
RightFoot  -20.6483 0.0100808 -0.875563
RightToes  5.82077e-011 -3.18055e-015 -2.98177e-016
Spine  43.2019 -0.221705 -3.19518
Spine1  -13.2792 -1.69704 -2.30339
HEad  -24.046 -9.48817 -1.37476
LeftShoulder1  -3.88251e-019 9.70628e-020 -3.87848e-018
LeftArm  -2.30599 -23.1301 -72.9154
LeftForeArm  19.234 -7.268 -7.91227
LeftHand  -12.3751 -11.4322 75.1028
RightShoulder  4.14183 9.06059 19.7614
RightArm  -5.92909 8.0463 50.0614
RightForeArm  6.69369 35.5735 -19.9466
RightHand  -7.45996 8.70371 -56.2043
LeftUpLeg  -52.6813 -2.46548 -10.1827
LeftLeg  111.614 -20.719 16.0211
LeftFoot  -16.2918 -0.0846031 -1.18683
LeftToes  9.37148e-011 4.50685e-012 -4.11107e-011
306
root  -1.16251 19.6989 32.9414 51.9686 -3.04454 7.42224
RightUpLeg  -47.6123 -7.09479 1.66672
RightLeg  106.51 17.7919 -6.20137
RightFoot  -21.3808 0.063412 -0.0855753
RightToes  5.82077e-011 -3.18055e-015 -2.98177e-016
Spine  46.1964 -0.12591 -3.95225
Spine1  -14.1305 -1.90359 -4.8378
HEad  -23.683 -10.1272 -0.774337
LeftShoulder1  -3.88251e-019 9.70628e-020 -3.87848e-018
LeftArm  -1.40678 -22.9835 -73.3901
LeftForeArm  19.935 -7.03491 -8.20369
LeftHand  -12.6074 -11.5682 75.6818
RightShoulder  3.75797 8.69943 18.0251
RightArm  -10.2647 15.3922 50.5558
RightForeArm  9.08505 30.2242 -16.6818
RightHand  -6.87542 8.11872 -54.3274
LeftUpLeg  -55.0096 -2.6794 -12.778
LeftLeg  117.73 -21.6258 14.2329
LeftFoot  -23.3311 -0.269344 -2.29144
LeftToes  9.37148e-011 4.50685e-012 -4.11107e-011
307
root  -1.24102 19.7273 33.4434 49.7844 -4.16874 7.8706
RightUpLeg  -43.6405 -6.76003 -0.00369715
RightLeg  105.045 17.5747 -6.0156
RightFoot  -21.9241 0.114421 0.578392
RightToes  5.82077e-011 -3.18055e-015 -2.98177e-016
Spine  49.0472 -0.374921 -3.67217
Spine1  -15.0851 -2.08157 -7.88986
HEad  -22.8494 -10.9366 -0.171692
LeftShoulder1  -3.88251e-019 9.70628e-020 -3.87848e-018
LeftArm  -0.806267 -22.4204 -73.6128
LeftForeArm  20.6853 -7.03573 -8.58864
LeftHand  -12.7227 -11.6001 76.0838
RightShoulder  3.29501 8.30902 15.7497
RightArm  -14.7638 21.0248 51.2274
RightForeArm  10.7769 24.5583 -13.7303
RightHand  -6.19571 7.46662 -51.8089
LeftUpLeg  -57.3284 -2.74269 -14.8133
LeftLeg  122.844 -21.5536 11.8757
LeftFoot  -28.8655 -0.556238 -3.45964
LeftToes  9.37148e-011 4.50685e-012 -4.11107e-011
